<?xml version="1.0" standalone="no"?>
<!DOCTYPE svg PUBLIC "-//W3C//DTD SVG 20010904//EN"
 "http://www.w3.org/TR/2001/REC-SVG-20010904/DTD/svg10.dtd">
<svg version="1.0" xmlns="http://www.w3.org/2000/svg"
 width="1024.000000pt" height="1024.000000pt" viewBox="0 0 1024.000000 1024.000000"
 preserveAspectRatio="xMidYMid meet">
<metadata>
Created by potrace 1.14, written by Peter Selinger 2001-2017
</metadata>
<g transform="translate(0.000000,1024.000000) scale(0.100000,-0.100000)"
fill="#000000" stroke="none">
<path d="M7005 8674 c-11 -3 -55 -12 -99 -20 -362 -70 -677 -274 -898 -584
-49 -68 -131 -228 -150 -292 -6 -21 -14 -38 -19 -38 -4 0 -147 137 -317 304
-359 353 -378 366 -521 374 -46 3 -107 -1 -136 -7 -90 -20 -25 39 -1030 -931
-1245 -1200 -1294 -1249 -1306 -1292 -19 -74 11 -149 80 -195 44 -30 96 -29
155 2 l46 24 0 -554 0 -555 175 0 175 0 0 724 0 725 23 24 c12 13 96 96 187
183 91 88 316 305 500 484 1032 1002 1084 1052 1094 1043 3 -4 6 -40 6 -81 0
-86 -13 -115 -82 -177 -44 -40 -207 -198 -573 -555 -116 -113 -271 -264 -345
-335 -74 -72 -258 -249 -408 -394 l-272 -264 0 -684 0 -683 165 0 165 0 0 -55
0 -55 -548 0 c-461 0 -557 -2 -607 -15 -168 -44 -315 -205 -357 -390 -19 -86
-18 -1933 1 -2015 7 -30 33 -97 58 -149 38 -79 59 -108 131 -181 71 -72 102
-95 172 -128 146 -71 170 -74 498 -79 l293 -4 202 -104 c343 -176 629 -275
982 -338 400 -72 705 -82 1078 -36 467 57 882 195 1242 411 l110 65 270 6
c227 5 283 9 350 26 156 41 304 131 393 242 157 194 197 405 126 667 -6 19 -3
22 26 22 35 0 53 16 150 135 328 405 580 1043 667 1693 24 181 24 642 -1 842
-50 410 -182 873 -335 1178 l-40 80 30 84 c52 142 70 238 76 419 7 197 -9 315
-63 479 -65 195 -167 361 -317 517 -201 208 -416 335 -687 405 -104 28 -133
31 -305 34 -104 1 -199 1 -210 -2z m462 -368 c105 -29 188 -68 202 -93 5 -10
14 -44 20 -75 7 -31 25 -74 40 -96 27 -36 28 -39 10 -50 -15 -10 -18 -26 -18
-128 -1 -218 -46 -388 -149 -559 -51 -86 -101 -148 -200 -248 -216 -219 -507
-353 -824 -382 -43 -4 -78 -10 -78 -13 0 -10 79 -107 119 -147 23 -21 41 -43
41 -48 0 -14 -69 2 -121 28 -47 24 -184 163 -236 240 -40 60 -90 174 -118 270
-74 260 -49 530 74 773 59 116 80 145 174 240 155 158 388 278 602 312 33 5
130 7 215 5 128 -3 171 -8 247 -29z m-2359 -1208 c337 -124 427 -553 168 -795
-109 -102 -214 -139 -371 -130 -134 7 -224 49 -323 148 -94 95 -127 182 -127
334 0 106 2 114 34 180 42 86 162 210 236 244 116 54 268 62 383 19z m2038
-1163 l24 -25 0 -365 -1 -366 -57 3 -57 3 -2 375 c-2 206 -1 381 2 388 8 21
64 14 91 -13z m-2953 -290 c18 -8 42 -30 54 -48 21 -31 22 -41 24 -407 l3
-375 -152 -3 -152 -3 0 363 c0 341 1 364 20 403 36 73 129 106 203 70z m2742
-803 c323 -94 599 -374 686 -697 33 -121 37 -338 10 -469 -45 -221 -188 -434
-370 -551 l-66 -43 -482 -7 -483 -7 0 291 0 291 218 0 c249 0 283 7 355 70 54
48 88 122 95 207 l5 63 -1135 0 -1135 0 -6 278 c-4 152 -7 350 -7 440 l0 163
1118 -3 1117 -3 80 -23z m-3957 -589 l2 -263 -270 0 -270 0 0 169 c0 211 13
254 96 318 55 41 102 49 279 43 l160 -5 3 -262z m1228 267 l64 0 0 -265 0
-264 -72 -3 -73 -3 0 -197 c0 -108 -3 -199 -6 -202 -3 -3 -115 -6 -250 -6
-134 0 -280 -3 -324 -6 l-80 -6 2 -54 1 -54 -67 0 -68 0 -6 197 c-4 109 -4
347 0 530 l6 333 391 2 c215 2 397 2 404 1 8 -2 43 -3 78 -3z m-1348 -877
l122 -6 0 -714 0 -715 -152 4 c-149 3 -155 4 -214 35 -108 56 -161 143 -175
287 -10 108 -12 593 -2 899 l6 217 147 0 c81 0 202 -3 268 -7z m3032 -273 l0
-270 -52 30 c-115 68 -227 100 -346 100 -79 0 -236 -37 -303 -70 -208 -106
-369 -302 -414 -504 -14 -60 -16 -105 -12 -199 3 -67 9 -133 12 -147 l6 -25
-78 1 -78 0 -3 355 c-2 195 0 499 3 677 l7 322 629 0 629 0 0 -270z m-1760
-330 l0 -70 -317 0 c-175 0 -323 -4 -330 -8 -14 -9 -21 -185 -22 -539 l-1
-223 -64 0 -64 0 -8 68 c-4 37 -4 225 -1 417 4 193 7 367 7 388 l0 37 400 0
400 0 0 -70z m2908 -127 l451 -6 20 -46 c69 -161 38 -323 -86 -446 -106 -106
-195 -135 -417 -135 l-131 0 -34 71 c-55 115 -147 198 -276 250 l-60 24 -644
3 c-701 3 -694 4 -772 -54 -43 -32 -47 -19 -19 59 30 82 70 139 132 188 125
98 116 97 804 98 319 1 784 -2 1032 -6z m-640 -557 c2 -27 1 -60 -3 -73 l-5
-23 -576 0 -575 0 -22 -23 c-12 -13 -30 -33 -39 -45 -21 -26 -79 -30 -98 -7
-36 43 59 186 140 212 24 8 210 11 605 10 l570 -2 3 -49z"/>
</g>
</svg>
